<svg xmlns="http://www.w3.org/2000/svg" viewBox="0 0 279.58 63.97"><defs><style>.cls-1{fill:none;stroke:#ef0f0f;stroke-miterlimit:10;stroke-width:16px;}</style></defs><title>Asset 1</title><g id="Layer_2" data-name="Layer 2"><g id="Layer_1-2" data-name="Layer 1"><path class="cls-1" d="M6,34.56,21.26,51.88a5.91,5.91,0,0,0,11.27-.06l10-32.23a8.27,8.27,0,0,1,15.87.28l3.23,11.85c3,10.92,18.4,11.14,21.68.3l6-19.72a6.05,6.05,0,0,1,11.57-.07L113,50.51a5.91,5.91,0,0,0,11.33-.21l8.44-30.53a8.28,8.28,0,0,1,15.84-.42l7.59,22.75a8.24,8.24,0,0,0,15.38.67l7-16.06c4.43-10.23,19.29-9.1,22.12,1.68l1.66,6.3a9.3,9.3,0,0,0,16.25,3.44h0a29.73,29.73,0,0,1,43.94-2.76L274,46.56"/></g></g></svg>